# xmcd
# 
# Track frame offsets:
#     182
#     18700
#     33745
#     44190
#     59767
#     70867
#     94320
#     107660
#     141880
#     152097
#     164652
#     178122
#     196725
#     211200
#     250510
# 
# Disc length: 3629
# 
# Revision: 7
# Processed by: cddbd v1.5.2PL0 Copyright (c) Steve Scherf et al.
# Submitted via: BonkEnc v1.0.8
# 
DISCID=e20e2b0f
DTITLE=Les Plus Grands Moments du Jazz - 1989 - Les Plus Grands Moments du Jazz - Les plus grands moments du Jazz - CD2
DYEAR=1989
DGENRE=Jazz
TTITLE0=01 - Gerry Mulligan - My funny Valentine -1959
TTITLE1=02 - Gene Krupa - How high the moon - 1946
TTITLE2=03 - Teddy Wilson - Lullaby of Birdland - 1960
TTITLE3=04 - The Glenn Miller Orchestra - In the mood - 1960
TTITLE4=05 - Mahalia Jackson - Joshua fit the battle of Jericho - 1958
TTITLE5=06 - Dave Brubeck - It's a raggy waltz - 1961
TTITLE6=07 - Duke Ellington - Happy go lucky local - 1961
TTITLE7=08 - George Benson - Willow weep for me - 1966
TTITLE8=09 - Ray Bryant - On green dolphin street - 1962
TTITLE9=10 - Haary James - Midnight sun - 1954
TTITLE10=11 - Cab Calloway - Hi de ho man - 1974
TTITLE11=12 - Earl Hines - St. James infirmary blues - 1965
TTITLE12=13 - Sarah Vaughan - It might as well be spring - 1955
TTITLE13=14 - Art Blakey - Oscalypso - 1957
TTITLE14=15 - Duke Ellington - C Jam blues - 1960
EXTD=YEAR: 1989
EXTT0=
EXTT1=
EXTT2=
EXTT3=
EXTT4=
EXTT5=
EXTT6=
EXTT7=
EXTT8=
EXTT9=
EXTT10=
EXTT11=
EXTT12=
EXTT13=
EXTT14=
PLAYORDER=
